<svg width="1728" height="150" viewBox="0 0 1728 150" fill="none" xmlns="http://www.w3.org/2000/svg">
    <g clip-path="url(#clip0_78_365)">
    <path d="M0 40L18 39.3C36 38.7 72 37.3 108 41.5C144 45.7 180 55.3 216 57.8C252 60.3 288 55.7 324 51.7C360 47.7 396 44.3 432 42C468 39.7 504 38.3 540 41.8C576 45.3 612 53.7 648 54.2C684 54.7 720 47.3 756 44.7C792 42 828 44 864 44.2C900 44.3 936 42.7 972 45.2C1008 47.7 1044 54.3 1080 55C1116 55.7 1152 50.3 1188 50.7C1224 51 1260 57 1296 56.2C1332 55.3 1368 47.7 1404 47.2C1440 46.7 1476 53.3 1512 57.5C1548 61.7 1584 63.3 1620 63.8C1656 64.3 1692 63.7 1710 63.3L1728 63V151H1710C1692 151 1656 151 1620 151C1584 151 1548 151 1512 151C1476 151 1440 151 1404 151C1368 151 1332 151 1296 151C1260 151 1224 151 1188 151C1152 151 1116 151 1080 151C1044 151 1008 151 972 151C936 151 900 151 864 151C828 151 792 151 756 151C720 151 684 151 648 151C612 151 576 151 540 151C504 151 468 151 432 151C396 151 360 151 324 151C288 151 252 151 216 151C180 151 144 151 108 151C72 151 36 151 18 151H0V40Z" fill="#1C1C1C"/>
    <path d="M0 63L18 61.3C36 59.7 72 56.3 108 56.7C144 57 180 61 216 65C252 69 288 73 324 73.5C360 74 396 71 432 66.8C468 62.7 504 57.3 540 54.7C576 52 612 52 648 53.8C684 55.7 720 59.3 756 59.5C792 59.7 828 56.3 864 58C900 59.7 936 66.3 972 69.8C1008 73.3 1044 73.7 1080 72.5C1116 71.3 1152 68.7 1188 66.2C1224 63.7 1260 61.3 1296 60.7C1332 60 1368 61 1404 64.2C1440 67.3 1476 72.7 1512 71C1548 69.3 1584 60.7 1620 56.2C1656 51.7 1692 51.3 1710 51.2L1728 51V151H1710C1692 151 1656 151 1620 151C1584 151 1548 151 1512 151C1476 151 1440 151 1404 151C1368 151 1332 151 1296 151C1260 151 1224 151 1188 151C1152 151 1116 151 1080 151C1044 151 1008 151 972 151C936 151 900 151 864 151C828 151 792 151 756 151C720 151 684 151 648 151C612 151 576 151 540 151C504 151 468 151 432 151C396 151 360 151 324 151C288 151 252 151 216 151C180 151 144 151 108 151C72 151 36 151 18 151H0V63Z" fill="#1E1E24"/>
    <path d="M0 87.9999H18C36 87.9999 72 88 108 87.2999C144 86.6999 180 85.2999 216 83.1999C252 80.9999 288 77.9999 324 78.6999C360 79.2999 396 83.6999 432 82.7999C468 81.9999 504 75.9999 540 75.2999C576 74.6999 612 79.2999 648 79.1999C684 78.9999 720 73.9999 756 74.2999C792 74.6999 828 80.2999 864 83.1999C900 85.9999 936 85.9999 972 86.1999C1008 86.2999 1044 86.6999 1080 83.1999C1116 79.6999 1152 72.2999 1188 71.4999C1224 70.6999 1260 76.2999 1296 78.4999C1332 80.6999 1368 79.2999 1404 77.2999C1440 75.2999 1476 72.6999 1512 72.1999C1548 71.6999 1584 73.2999 1620 73.7999C1656 74.2999 1692 73.6999 1710 73.2999L1728 72.9999V151H1710C1692 151 1656 151 1620 151C1584 151 1548 151 1512 151C1476 151 1440 151 1404 151C1368 151 1332 151 1296 151C1260 151 1224 151 1188 151C1152 151 1116 151 1080 151C1044 151 1008 151 972 151C936 151 900 151 864 151C828 151 792 151 756 151C720 151 684 151 648 151C612 151 576 151 540 151C504 151 468 151 432 151C396 151 360 151 324 151C288 151 252 151 216 151C180 151 144 151 108 151C72 151 36 151 18 151H0V87.9999Z" fill="#201F2C"/>
    <path d="M0 93L18 93.5C36 94 72 95 108 92.5C144 90 180 83.9999 216 80.6999C252 77.2999 288 76.6999 324 77.6999C360 78.6999 396 81.2999 432 83.1999C468 84.9999 504 85.9999 540 84.6999C576 83.2999 612 79.7 648 78.8C684 78 720 80 756 82.5C792 85 828 88 864 86.8C900 85.7 936 80.3 972 78.5C1008 76.7 1044 78.3 1080 82.3C1116 86.3 1152 92.7 1188 96C1224 99.3 1260 99.7 1296 97.5C1332 95.3 1368 90.7 1404 87.5C1440 84.3 1476 82.7 1512 82C1548 81.3 1584 81.7 1620 83.3C1656 85 1692 88 1710 89.5L1728 91V151H1710C1692 151 1656 151 1620 151C1584 151 1548 151 1512 151C1476 151 1440 151 1404 151C1368 151 1332 151 1296 151C1260 151 1224 151 1188 151C1152 151 1116 151 1080 151C1044 151 1008 151 972 151C936 151 900 151 864 151C828 151 792 151 756 151C720 151 684 151 648 151C612 151 576 151 540 151C504 151 468 151 432 151C396 151 360 151 324 151C288 151 252 151 216 151C180 151 144 151 108 151C72 151 36 151 18 151H0V93Z" fill="#212135"/>
    <path d="M0 110L18 109C36 108 72 106 108 102.7C144 99.3 180 94.7 216 93.3C252 92 288 94 324 96C360 98 396 100 432 98.8C468 97.7 504 93.3 540 94.5C576 95.7 612 102.3 648 104C684 105.7 720 102.3 756 100.8C792 99.3 828 99.7 864 101.2C900 102.7 936 105.3 972 105.3C1008 105.3 1044 102.7 1080 101.5C1116 100.3 1152 100.7 1188 99.3C1224 98 1260 95 1296 93.2C1332 91.3 1368 90.7 1404 92.2C1440 93.7 1476 97.3 1512 97.5C1548 97.7 1584 94.3 1620 92.2C1656 90 1692 89 1710 88.5L1728 88V151H1710C1692 151 1656 151 1620 151C1584 151 1548 151 1512 151C1476 151 1440 151 1404 151C1368 151 1332 151 1296 151C1260 151 1224 151 1188 151C1152 151 1116 151 1080 151C1044 151 1008 151 972 151C936 151 900 151 864 151C828 151 792 151 756 151C720 151 684 151 648 151C612 151 576 151 540 151C504 151 468 151 432 151C396 151 360 151 324 151C288 151 252 151 216 151C180 151 144 151 108 151C72 151 36 151 18 151H0V110Z" fill="#21233D"/>
    <path d="M0 101L18 101.8C36 102.7 72 104.3 108 105.7C144 107 180 108 216 107.8C252 107.7 288 106.3 324 105.3C360 104.3 396 103.7 432 105.7C468 107.7 504 112.3 540 113.7C576 115 612 113 648 113.7C684 114.3 720 117.7 756 118.3C792 119 828 117 864 115.3C900 113.7 936 112.3 972 113C1008 113.7 1044 116.3 1080 114.5C1116 112.7 1152 106.3 1188 105.2C1224 104 1260 108 1296 109C1332 110 1368 108 1404 106.8C1440 105.7 1476 105.3 1512 104.8C1548 104.3 1584 103.7 1620 106.3C1656 109 1692 115 1710 118L1728 121V151H1710C1692 151 1656 151 1620 151C1584 151 1548 151 1512 151C1476 151 1440 151 1404 151C1368 151 1332 151 1296 151C1260 151 1224 151 1188 151C1152 151 1116 151 1080 151C1044 151 1008 151 972 151C936 151 900 151 864 151C828 151 792 151 756 151C720 151 684 151 648 151C612 151 576 151 540 151C504 151 468 151 432 151C396 151 360 151 324 151C288 151 252 151 216 151C180 151 144 151 108 151C72 151 36 151 18 151H0V101Z" fill="#212546"/>
    <path d="M0 131L18 131.2C36 131.3 72 131.7 108 131C144 130.3 180 128.7 216 125.8C252 123 288 119 324 116.8C360 114.7 396 114.3 432 114.8C468 115.3 504 116.7 540 116.8C576 117 612 116 648 115.8C684 115.7 720 116.3 756 118C792 119.7 828 122.3 864 124.5C900 126.7 936 128.3 972 126.7C1008 125 1044 120 1080 118.2C1116 116.3 1152 117.7 1188 120.7C1224 123.7 1260 128.3 1296 129.7C1332 131 1368 129 1404 126.2C1440 123.3 1476 119.7 1512 117.7C1548 115.7 1584 115.3 1620 118C1656 120.7 1692 126.3 1710 129.2L1728 132V151H1710C1692 151 1656 151 1620 151C1584 151 1548 151 1512 151C1476 151 1440 151 1404 151C1368 151 1332 151 1296 151C1260 151 1224 151 1188 151C1152 151 1116 151 1080 151C1044 151 1008 151 972 151C936 151 900 151 864 151C828 151 792 151 756 151C720 151 684 151 648 151C612 151 576 151 540 151C504 151 468 151 432 151C396 151 360 151 324 151C288 151 252 151 216 151C180 151 144 151 108 151C72 151 36 151 18 151H0V131Z" fill="#212650"/>
    <path d="M0 138L18 138.2C36 138.3 72 138.7 108 137.3C144 136 180 133 216 133.8C252 134.7 288 139.3 324 140.3C360 141.3 396 138.7 432 137.2C468 135.7 504 135.3 540 134.5C576 133.7 612 132.3 648 131.5C684 130.7 720 130.3 756 130.2C792 130 828 130 864 129.8C900 129.7 936 129.3 972 129C1008 128.7 1044 128.3 1080 130.8C1116 133.3 1152 138.7 1188 141.3C1224 144 1260 144 1296 143C1332 142 1368 140 1404 139.8C1440 139.7 1476 141.3 1512 142.3C1548 143.3 1584 143.7 1620 141.5C1656 139.3 1692 134.7 1710 132.3L1728 130V151H1710C1692 151 1656 151 1620 151C1584 151 1548 151 1512 151C1476 151 1440 151 1404 151C1368 151 1332 151 1296 151C1260 151 1224 151 1188 151C1152 151 1116 151 1080 151C1044 151 1008 151 972 151C936 151 900 151 864 151C828 151 792 151 756 151C720 151 684 151 648 151C612 151 576 151 540 151C504 151 468 151 432 151C396 151 360 151 324 151C288 151 252 151 216 151C180 151 144 151 108 151C72 151 36 151 18 151H0V138Z" fill="#202859"/>
    </g>
    <defs>
    <clipPath id="clip0_78_365">
    <rect width="1728" height="150" fill="white"/>
    </clipPath>
    </defs>
    </svg>
    